<svg width="58" height="63" viewBox="0 0 58 63" fill="none" xmlns="http://www.w3.org/2000/svg">
<path d="M1 1V42.52L1.23 42.79C6.1 50.6 14.31 55.28 28.13 61L28.91 61.32L29.69 61C43.52 55.26 51.69 50.58 56.5 42.76L56.6 42.64V1H1Z" stroke="#232E3B" stroke-width="2" stroke-miterlimit="10"/>
<path d="M35.3333 27.5C35.3333 25.6137 34.666 24.0033 33.3314 22.6686C31.9967 21.334 30.3863 20.6667 28.5 20.6667C26.6137 20.6667 25.0033 21.334 23.6686 22.6686C22.334 24.0033 21.6667 25.6137 21.6667 27.5C21.6667 29.3863 22.334 30.9967 23.6686 32.3314C25.0033 33.666 26.6137 34.3333 28.5 34.3333C30.3863 34.3333 31.9967 33.666 33.3314 32.3314C34.666 30.9967 35.3333 29.3863 35.3333 27.5ZM49 24.5905V30.5163C49 30.7298 48.9288 30.9345 48.7865 31.1302C48.6441 31.326 48.4661 31.4416 48.2526 31.4772L43.3145 32.2246C42.9763 33.1856 42.6293 33.9952 42.2734 34.6536C42.8963 35.5434 43.8483 36.7713 45.1296 38.3372C45.3075 38.5508 45.3965 38.7732 45.3965 39.0046C45.3965 39.2359 45.3164 39.4405 45.1563 39.6185C44.6758 40.2769 43.7949 41.2378 42.5137 42.5013C41.2324 43.7648 40.3961 44.3965 40.0046 44.3965C39.791 44.3965 39.5597 44.3164 39.3105 44.1563L35.627 41.2734C34.844 41.6827 34.0343 42.0208 33.1979 42.2878C32.9132 44.7079 32.6552 46.3628 32.4238 47.2526C32.2993 47.7509 31.979 48 31.4629 48H25.5371C25.288 48 25.07 47.9244 24.8831 47.7731C24.6963 47.6219 24.594 47.4306 24.5762 47.1992L23.8288 42.2878C22.9568 42.003 22.156 41.6738 21.4264 41.3001L17.6628 44.1563C17.4848 44.3164 17.2624 44.3965 16.9954 44.3965C16.7463 44.3965 16.5239 44.2986 16.3281 44.1029C14.0859 42.0742 12.6178 40.5794 11.9238 39.6185C11.7993 39.4405 11.737 39.2359 11.737 39.0046C11.737 38.791 11.8082 38.5864 11.9505 38.3906C12.2174 38.0169 12.6712 37.4252 13.3118 36.6156C13.9525 35.8059 14.4329 35.1786 14.7533 34.7337C14.2728 33.844 13.908 32.9631 13.6589 32.0911L8.77409 31.3704C8.54275 31.3349 8.3559 31.2236 8.21354 31.0368C8.07118 30.8499 8 30.6408 8 30.4095V24.4837C8 24.2702 8.07118 24.0655 8.21354 23.8698C8.3559 23.6741 8.52496 23.5584 8.7207 23.5228L13.6855 22.7754C13.9347 21.9568 14.2817 21.1382 14.7266 20.3197C14.0148 19.3053 13.0627 18.0775 11.8704 16.6361C11.6925 16.4225 11.6035 16.209 11.6035 15.9955C11.6035 15.8175 11.6836 15.6129 11.8438 15.3815C12.3064 14.7409 13.1828 13.7844 14.473 12.5121C15.7631 11.2397 16.6039 10.6035 16.9954 10.6035C17.2268 10.6035 17.4581 10.6925 17.6895 10.8705L21.373 13.7266C22.156 13.3173 22.9657 12.9792 23.8021 12.7122C24.0868 10.2921 24.3448 8.63716 24.5762 7.74741C24.7007 7.24914 25.0211 7.00001 25.5371 7.00001H31.4629C31.712 7.00001 31.93 7.07564 32.1169 7.2269C32.3037 7.37816 32.406 7.56945 32.4238 7.80079L33.1712 12.7122C34.0432 12.997 34.844 13.3262 35.5736 13.6999L39.3639 10.8438C39.5241 10.6836 39.7376 10.6035 40.0046 10.6035C40.2359 10.6035 40.4583 10.6925 40.6719 10.8705C42.9674 12.9881 44.4355 14.5007 45.0762 15.4082C45.2007 15.5506 45.263 15.7463 45.263 15.9955C45.263 16.209 45.1918 16.4136 45.0495 16.6094C44.7826 16.9831 44.3288 17.5748 43.6882 18.3844C43.0475 19.1941 42.5671 19.8214 42.2467 20.2663C42.7094 21.156 43.0742 22.028 43.3411 22.8822L48.2259 23.6296C48.4572 23.6652 48.6441 23.7764 48.7865 23.9632C48.9288 24.1501 49 24.3592 49 24.5905Z" fill="#1B222D"/>
</svg>
