<svg width="123" height="146" viewBox="0 0 123 146" fill="none" xmlns="http://www.w3.org/2000/svg">
<path d="M1 1V49.4325V99.4296L1.49907 100.07C12.0671 118.584 29.8615 129.679 59.8731 143.31L61.5656 144.069L63.2583 143.31C93.2699 129.703 110.977 118.608 121.437 100.07L121.654 99.7852V49.4325V1H1Z" stroke="#1B222D" stroke-width="2.0011" stroke-miterlimit="10"/>
<path d="M74.6667 59.5C74.6667 55.5894 73.2832 52.2507 70.5163 49.4837C67.7494 46.7168 64.4106 45.3333 60.5 45.3333C56.5894 45.3333 53.2507 46.7168 50.4837 49.4837C47.7168 52.2507 46.3333 55.5894 46.3333 59.5C46.3333 63.4106 47.7168 66.7494 50.4837 69.5163C53.2507 72.2832 56.5894 73.6667 60.5 73.6667C64.4106 73.6667 67.7494 72.2832 70.5163 69.5163C73.2832 66.7494 74.6667 63.4106 74.6667 59.5ZM103 53.4681V65.7533C103 66.196 102.852 66.6202 102.557 67.0261C102.262 67.4319 101.893 67.6717 101.451 67.7455L91.2129 69.2949C90.5119 71.2871 89.7925 72.9657 89.0547 74.3307C90.3459 76.1754 92.3197 78.7209 94.9759 81.9675C95.3448 82.4102 95.5293 82.8713 95.5293 83.3509C95.5293 83.8305 95.3633 84.2548 95.0313 84.6237C94.0352 85.9887 92.209 87.9809 89.5527 90.6003C86.8965 93.2196 85.1625 94.5293 84.3509 94.5293C83.9082 94.5293 83.4286 94.3633 82.9121 94.0313L75.2754 88.0547C73.6521 88.9032 71.9735 89.6042 70.2396 90.1576C69.6493 95.1749 69.1144 98.6059 68.6348 100.451C68.3765 101.484 67.7125 102 66.6426 102H54.3574C53.8409 102 53.389 101.843 53.0016 101.53C52.6143 101.216 52.4021 100.819 52.3652 100.34L50.8158 90.1576C49.008 89.5673 47.3479 88.8848 45.8353 88.11L38.0326 94.0313C37.6636 94.3633 37.2025 94.5293 36.6491 94.5293C36.1326 94.5293 35.6714 94.3264 35.2656 93.9206C30.6172 89.7148 27.5736 86.6159 26.1348 84.6237C25.8765 84.2548 25.7474 83.8305 25.7474 83.3509C25.7474 82.9082 25.895 82.4839 26.1901 82.0781C26.7435 81.3034 27.6842 80.0767 29.0124 78.3981C30.3405 76.7195 31.3366 75.4191 32.0007 74.4968C31.0046 72.6521 30.2483 70.826 29.7318 69.0182L19.6048 67.5241C19.1252 67.4503 18.7378 67.2197 18.4427 66.8324C18.1476 66.445 18 66.0115 18 65.5319V53.2468C18 52.804 18.1476 52.3798 18.4427 51.974C18.7378 51.5682 19.0883 51.3284 19.4941 51.2546L29.7871 49.7051C30.3036 48.008 31.023 46.311 31.9453 44.6139C30.4696 42.5111 28.4959 39.9655 26.0241 36.9772C25.6552 36.5345 25.4707 36.0918 25.4707 35.6491C25.4707 35.2802 25.6367 34.8559 25.9688 34.3763C26.928 33.0482 28.7449 31.0652 31.4196 28.4274C34.0943 25.7896 35.8375 24.4707 36.6491 24.4707C37.1287 24.4707 37.6083 24.6552 38.0879 25.0241L45.7246 30.9453C47.3479 30.0968 49.0265 29.3959 50.7604 28.8425C51.3507 23.8251 51.8856 20.3941 52.3652 18.5495C52.6235 17.5165 53.2875 17 54.3574 17H66.6426C67.1591 17 67.611 17.1568 67.9984 17.4704C68.3857 17.784 68.5979 18.1806 68.6348 18.6602L70.1842 28.8425C71.992 29.4327 73.6521 30.1153 75.1647 30.89L83.0228 24.9688C83.3548 24.6367 83.7975 24.4707 84.3509 24.4707C84.8305 24.4707 85.2917 24.6552 85.7344 25.0241C90.4935 29.4143 93.5371 32.5501 94.8652 34.4317C95.1235 34.7268 95.2526 35.1326 95.2526 35.6491C95.2526 36.0918 95.105 36.5161 94.8099 36.9219C94.2565 37.6966 93.3158 38.9233 91.9876 40.6019C90.6595 42.2805 89.6634 43.581 88.9994 44.5033C89.9586 46.3479 90.7148 48.1556 91.2682 49.9264L101.395 51.4759C101.875 51.5497 102.262 51.7803 102.557 52.1677C102.852 52.555 103 52.9885 103 53.4681Z" fill="#1B222D"/>
</svg>
